<?xml version="1.0" encoding="utf-8"?>
<!-- Generator: Adobe Illustrator 23.1.1, SVG Export Plug-In . SVG Version: 6.00 Build 0)  -->
<svg version="1.1" id="Layer_1" xmlns="http://www.w3.org/2000/svg" xmlns:xlink="http://www.w3.org/1999/xlink" x="0px" y="0px"
	 viewBox="0 0 120.2 190.3" style="enable-background:new 0 0 120.2 190.3;" xml:space="preserve">
<style type="text/css">
	.st0{fill:#030504;}
	.st1{fill:#040B05;}
	.st2{fill:#090F0B;}
	.st3{fill:#131D17;}
	.st4{fill:#45755D;}
	.st5{fill:#050D07;}
	.st6{fill:#486F5E;}
	.st7{fill:#3D544A;}
	.st8{fill:#030A04;}
	.st9{fill:#0B170F;}
	.st10{fill:#446E5D;}
	.st11{fill:#060D08;}
	.st12{fill:#25372C;}
	.st13{fill:#1C2B23;}
	.st14{fill:#4D675A;}
	.st15{fill:#070E08;}
	.st16{fill:#496E5E;}
	.st17{fill:#041609;}
	.st18{fill:#082011;}
	.st19{fill:#091D10;}
	.st20{fill:#4C6357;}
	.st21{fill:#0B2716;}
	.st22{fill:#0F3A26;}
	.st23{fill:#243A2D;}
	.st24{fill:#436655;}
	.st25{fill:#0D1D14;}
	.st26{fill:#F8F7F8;}
</style>
<path class="st0" d="M96.4,177.6c-0.3,0.2-0.4,0.4-0.1,0.7c-0.3,1.6-0.2,3.3-2,4.2l0,0c-2.7,5.3-7.1,7.5-12.9,7.2c-0.7,0-1.3,0-2,0
	c-2,0.8-4,0.9-6-0.1c-0.6-0.1-1.2-0.1-1.7-0.2c-1.2-3.9,2.5-2.6,3.9-3.7l-0.1,0c1.8-1.7,3.8-3.2,5.5-5c4.2-4.3,4-6.7-0.7-10.6
	c-0.6-0.5-1.3-1-1.9-1.6l0,0c-2.4-0.7-4.8-0.7-7.3,0l-0.5-0.1l-0.4,0.3c-1.3,1.9-3.4,2.2-5.4,2.7l-0.4,0l-0.2,0.3
	c-3.1,3.8-7.9,3.7-12.1,4.8l0,0c-7.1,2.7-14,5.9-21.9,4.6c-3.5-0.6-7.1,1.6-10.7-0.3c-1.6-0.9-3.5-1.2-4.3-3
	c-1.6-1.5-3.9-2.2-5.1-4.2c-2.2-1.1-2.7-3.3-3.7-5.3c0.1-0.3,0.1-0.5-0.2-0.7c-6-7.9-7.9-16.7-4.9-26.3c0.5-1.6,1.3-3.1,3-3.8l0,0
	c0.9-1.2,0.9-2.9,2.1-3.9c0.6-1,1.3-2,1.9-3c2.7-6,5.2-12.1,7.9-18c0.5-1,0.9-2,1.4-2.9c-0.6-6.1,3.4-9.2,7.9-12l0,0
	c1-4.1,3.9-6.7,7-9.2c5.4-4.6,10.7-9.4,17-12.7l0,0c5.6-7.6,9.4-15.5,6.1-25.3c-0.4-1.2-0.5-2.6-0.4-3.9c0.5-2.8,1.4-4.3,4-1.4
	c6.6,13.6,4.1,25.7-7.4,35.3c-3.7,3.1-7.6,5.9-11.4,8.9c-10.8,8.6-17.9,19.3-20.5,33c-1.3,6.6-3.2,12.9-7.9,18c-1.7,1.9-2,4.4-2.2,7
	c-0.5,7.2,1.6,13.8,3.9,20.4c0.9,2.6,2.8,4.4,5.5,5.4c8.3,3.3,16.8,4.2,25.3,0.7c5.9-2.4,11.9-4.2,17.9-6.2
	c6.2-1.9,12.2-4.2,18.9-2.5c7.6,2,10.8,8.5,7.4,15.5c-0.1,0.3-0.3,0.5-0.6,0.6c0.6,0.1,0.7-0.5,1-0.8c2.1-2.5,2.2-5.4,2-8.4
	c-0.1-1.6-0.9-3.2,0.3-4.7c0.9-0.3,1.5,0,2.2,1c-1.8-4.4-5.5-5.7-9.2-7.3c-1.2-0.5-4.7-0.8-1.5-3.5c4.8-0.5,8.8,0.7,11.4,5.1
	l-0.1-0.1c1.6,0.8,1.4,2.6,2.3,3.8l0,0C97.7,170.3,96.9,173.9,96.4,177.6z"/>
<path class="st1" d="M96.4,144.6c0-0.3,0-0.6-0.1-0.8c-1.6-0.8-3-1.9-4.2-3.1c-0.6-0.6-1.1-1.5-1.8-1.7c-6-1.4-6.4-6.5-7.4-11.1
	c-2.8-12.6-4.1-25.3,0.5-37.8c0.5-1.3,0.7-2.6,0.6-3.9c-0.9-9.7,3.7-17.7,7.5-26c1.1-2.5,3.1-4.3,5.8-5.2c3.3-0.2,3.7,1.6,2.9,4.3
	c-7.7,9.3-10.8,20-10.4,31.9c0.1,1.7,0.1,3.3,0.6,4.9c2.5,6.9,3.1,14.2,3.4,21.5c0.1,2.9,1,4.3,3.9,4.5c2.8,0.2,5.3,0.9,6.5,3.8
	c0.8,0.8,0.8,2.2,2,2.6c1.9,2.6,3.2,5.1-0.5,7.3c-1.3,0.8-1.1,2.8-2.6,3.4l0.1-0.1c-3,0.6-3.7,3.8-5.8,5.4
	C97.1,144.7,96.7,144.7,96.4,144.6z"/>
<path class="st2" d="M62.4,10.5c3.1-3.2,6-6.8,11-7.1c0.3,0.4,0.4,0.9,0.3,1.4C66.8,12,61.4,20,60.8,30.3c-0.3,5.2-2,10.1-2.3,15.3
	c-0.6-0.4-1.2-0.7-1.8-1.1c-0.1,0.7-0.2,1.5-0.3,2.2c-3.8-9.2-4-18.1,1.4-26.8c1-1.6,1.6-3.6,2.4-5.4c0.3-0.2,0.4-0.5,0.3-0.9
	C60.9,12.6,60.9,11.2,62.4,10.5L62.4,10.5z"/>
<path class="st3" d="M106.8,52.8c-1.2,1.2-2.4,2.5-3.6,3.7c-1,0.2-1.6,0.8-1.9,1.7c-0.6,0.2-1.2,0.4-1.7,0.7
	c0.6-1.8,0.5-3.2-1.9-3.2c-0.6-0.7-0.1-1.3,0.3-1.9c2-1.5,3.4-4.2,6.6-3.7C105.7,50.7,106.4,51.6,106.8,52.8z"/>
<path class="st4" d="M98.4,54.6c-0.3,0.4-0.5,0.7-0.8,1.1c-5.6,3.1-6.6,9.2-9.1,14.3c-2.8,5.9-3.2,12.3-3.5,18.7
	c-0.3,5-2.4,9.8-3,15c-1.1,10.9,1.6,21.3,4,31.7c0.1,0.5,0.2,1.1,0.7,1c4.1-1.3,4.6,2.9,7,4.3c-2.5,1.8-5.1-0.2-7.6-0.1
	c-0.6-0.2-0.3,0.9-0.3,0.3c0-0.2,0.2-0.2,0.5-0.1c5.1,1.4,5.7,2.3,3.7,5.5c-13.6,2.2-18.4-5.3-21.6-19.6c-1-4.2-1.2-8.6-1.9-12.8
	c-0.7-4.3-0.2-8.5,0.1-12.8c-2.3,7.8-1.9,15.7-0.2,23.5c1.4,6.4-3,11.9-9.4,12.1c-2.7,0.1-2.4-1.8-2.3-3.4c0.4-4,0.6-8-0.1-11.9
	c-2.2-8.4-5.5-10.9-14.2-10.7c7.2-0.1,10.9,2.7,12.9,9.9c0.5,5.4,0,10.6-1.9,15.7c-1.7,1.5-3.8,2.4-5.2,4.2c-1,1.2-1.2,2.2,0.1,3.3
	c0.3,0.4,0.5,0.8,0.7,1.2c0.2,0.7,0.1,1.4-0.2,2.1c-1.5,2.7-2.9,4.7-6.8,3.1c-2.3-1-5.5,0-8.1-1c-3.2-3.6-1.4-7.7-1.2-11.7
	c-1.1,4.6-3.4,8.4-7.1,11.6c-3.4,2.9-3.7,7.1-2.1,11c1.5,3.7,4.7,5.3,8.8,5.2c3.5-0.1,7,0,10.5-0.1c7.5,0.7,14.7-1,21.8-3.4
	c0.2-0.1,0.4-0.1,0.5-0.1c3-0.1,7.3-2.5,8.3,1.2c1,3.5-4,3-6.3,4.4c-0.8,0.5-1.9,0.5-2.6,1.3c-7.8,2.8-15.4,6.1-23.4,8.1
	c-7.5,1.9-14.5-0.2-21.4-2.6c-2.1-0.7-3.7-2.2-4.6-4.3c-3.2-8.1-5.5-16.4-4.5-25.2c0.3-2.5,1.4-4.4,3-6.2c3.4-3.7,5.1-8,6.1-12.8
	c1.2-6.2,3.1-12.3,5.3-18.1c2.4-6.4,7.8-11.4,13-16.1c3.7-3.3,7.7-6.4,11.6-9.4c14.3-10.9,16.7-19,10.7-36.3
	c0.5-2.4-2.2-4.2-1.4-6.6c4.1-12.1,3.7-26.4,16.3-34.5c2.1-0.7,4.2-3.6,6.3,0.3c0.3,0.6,1.8-0.1,2.8-0.3c3.2-0.6,6.4-1.3,9.8-1
	c3.1,0.5,6,1.4,8.9,2.5c1.4,0.5,3,1.6,4.5,0.1c0.5-0.5,1.1-0.8,1.7-1c2.8-0.3,4.4,2.7,7.1,2.7c1.2,0.6,1.2,2,1.8,2.9
	c-0.9,1.3,0,2.6,0.3,3.8c2.3,7.9,1.5,15.4-3.2,22.3c-5.1,5-9.6,10.8-16.5,13.6c-0.3,0.6-0.6-0.2-0.1,0.2c0.2,0.1,0.6,0,0.9,0
	C100.9,51.4,98.5,53.2,98.4,54.6z"/>
<path class="st5" d="M40.2,166.5c-3.3,0-6.7,0-10,0.1c-4.9,0.2-8.8-1.8-10.3-6.3c-1.5-4.3-1.5-9.3,2.7-12.3
	c3.8-2.8,5.5-6.4,6.7-10.6c0.5-1.8,1.3-4.2,3.4-3.3c1.9,0.8-0.2,2.5-0.5,3.8c-1,3.6-1.4,7.1,0.1,10.7c5.4,2.2,10.8,3.3,16.3,0
	c2.4-1.5,5.2-1.9,8-0.4c0.9,0.9,2.4,1.7,1.7,3.2c-0.6,1.3-2.1,0.4-3.1,0.5c-0.9,0.1-2-0.1-2.6,1c-8.4,1.2-16.7,2-24.4-3
	c-0.6-0.4-1.2-1.4-2-0.3c-1.8,2.7-3,5.6-2.3,8.9c0.6,2.8,2.5,3.9,5.3,4.4c8.7,1.4,17.2-0.2,25.5-2.5c9.2-2.5,18.5-3.7,28-1.7
	c-0.9,1.8,0.9,1.1,1.4,1.4c0.8,0.5,1.9,0.6,2.8,1c3.9,1.7,7.6,3.5,7.4,8.9c-1.2-0.8-2.2-1.5-3.2-2.2c-4.4-1.5-8-4.3-12.6-5.5
	c-7.9-1.9-15.4-0.5-22.8,1.5C50.6,165.1,45.4,165.6,40.2,166.5z"/>
<path class="st6" d="M40.2,166.5c9.8-2.8,19.7-6,29.9-6.4c7.6-0.3,15.6,0.6,21,7.5c1.3,4.9,2.7,9.8-1.8,13.9c-0.8,0.7-1.5,0.6-2.3,0
	c2.7-4,2.9-7.7-0.4-11.7c-3.8-4.6-8.8-4.1-13.6-3.8c-3.6,0.2-7.1,1.7-10.6,2.6c1.1-3.3,4.8-2.1,6.8-4c0.5-0.4,1.9-0.2,1.7-1.2
	c-0.1-1.3-1.2-1-2.3-1.1c-4.6-0.5-8.9,1.5-12.9,2.8C50.5,166.8,45.4,166.2,40.2,166.5z"/>
<path class="st7" d="M87.1,181.5c0.8,0,1.5,0,2.3,0c-0.8,1.1-2,2.3-3.2,1.7C85.3,182.8,86.5,182,87.1,181.5z"/>
<path class="st8" d="M52.5,152.9c0.7-1.5,1.9-1.7,3.6-1.5c3.9,0.4-0.3-1.3,0.4-1.9c1.2-1.1,2.4-0.5,3.6,0.1c-0.9-1.3-4-0.6-3.4-2.7
	c0.6-2,3-1.4,4.8-1.1c1.5,0.2,2.5,1.6,4.3,1.8c-1.4-2.4-4.1-2.5-5.6-4.2c-2-2.4-4.2-1-6.4-0.2c-0.4,0.1-0.9,0.1-1.3,0.1
	c-1.5-1.1-2.6-0.6-3.5,0.8c-0.7,0.5-1.5,1.2-2.4,0.5l0,0.1c-2.2-4.2,1.7-5.6,3.6-7.9c2.2-5.1,1.8-10.6,2.4-16
	c0.6-0.6,0.3-2.1,1.5-2.1c1.1,0,0.8,1.5,1.5,2.1c1.9,5,0.8,10.1,0.3,15.6c2.9-1.4,5.6-2.6,8.2-4c1.9-1,2.4-2.3,1.7-4.5
	c-2.5-8.8-2.5-17.7-1.3-26.6c0.2-1.4-0.2-3.3,2-3.3c2.6,0,2.3,2.2,2,3.7c-2.3,8.9,0.8,17.5,1.5,26.2c0.4,5.8,4.1,10.5,7,15.2
	c1.6,2.6,5.3,2.1,8.2,2.7c1.7,0.4,3.6,0.1,5.5,0.1c0.9,0.4,1.4,0.9,1,2c-7.4,1-14.5-0.6-22.4-2.4c1.5,3.5,2,7.9,0,8.3
	c-3,0.5-6.3,4.4-9.9,0.6C57.5,152.2,54.8,152.7,52.5,152.9z"/>
<path class="st9" d="M91.4,147.5c-0.3-0.7-0.7-1.3-1-2c-0.4-4.8-4.7-3-7.5-4.3c3.6-3.3,7.3-0.7,10.8-0.5c1.2,0.7,2.2,1.7,2.6,3.1
	C95.6,146.1,94.8,148.5,91.4,147.5z"/>
<path class="st10" d="M87.3,100c1.6,7.6,3.8,15.1,4.2,22.9c0.1,2.1,1.6,2.9,3.4,2.7c4.1-0.3,5.7,2.2,7.2,5.7c-3.3,0.1-6-3.1-9.2-0.8
	c0.2,0.5,0.3,0.9,0.5,0.9c1.7,0.4,3.7,0.4,4.3,2.7c0.2,0.7,0.1,1.3-0.7,1.5c-2,0.5-3.5-0.5-5-1.6c-1.4-0.9-3-1.6-3.5-3.3
	c-3-9.5-3.9-19.1-2.4-28.9c0.1-0.5,0.2-1,0.5-1.4C86.7,100.1,87.1,100.1,87.3,100z"/>
<path class="st11" d="M112.3,36.5c4.4-7.5,6-15.3,1.9-23.5c-1.4-2.8,0.8-2,2-2.3c4.8,7.4,4.5,15.5,3,23.8c-2.3,4.3-4.7,8.6-7,13
	c-0.9,1.1-1.8,2.2-2.7,3.2c-0.9,0.7-1.8,1.4-2.6,2.2c-1.1-0.4-2-1.2-2.5-2.3c1.4-4,5.9-5.8,7.1-10C112.2,39.2,111.8,37.7,112.3,36.5
	z"/>
<path class="st12" d="M92.5,4.5c-2.6,0.3-5.3,0.6-7.9,0.6c-2,0-5.5,4.3-6.6-1.3c0-0.1-3,0.4-4.7,0.6c0-0.3,0-0.7,0.1-1
	c9.5-4.5,19.4-3.9,29.4-2c-0.2,0.7-0.6,1.2-1.3,1.5c-1.5,0.3-2.9,0-4.3-0.4c-2.3-0.7,0.5,1.5-0.7,1.4C95.2,5,93.7,3.5,92.5,4.5z"/>
<path class="st13" d="M101.4,2.5c0.4-0.4,0.9-0.7,1.3-1.1c4.6,0.7,8.5,2.9,11.6,6.4c-0.2,1.3-0.7,2.2-2.2,1.1
	c-1.5-1.1-3.1-2.3-4.6-3.4C105.4,4.8,103,4.5,101.4,2.5z"/>
<path class="st14" d="M112.6,40.6c-1.6,4.3-4.9,7.1-8.3,9.9c-2.5,0.6-3.7,3.1-5.9,4.1c0.4-0.7-2.6-0.7-0.3-2.2
	c1.3-0.8-0.6-0.5-0.9-0.9c-0.2-0.5-0.1-0.9,0.3-1.3c3.9-2.7,7.9-5.3,11.2-8.8C109.6,40.6,110.6,37.7,112.6,40.6z"/>
<path class="st15" d="M80.2,36.2c-6.1,0.1-9.8-2.7-9.8-7.4c0-4.5,4.1-8.9,8.3-8.9c4.5,0.1,10,4.9,10.3,9
	C89.2,32.1,84.2,36.2,80.2,36.2z"/>
<path class="st16" d="M52.7,142.8c0.3,0,0.5-0.1,0.7-0.2c2.3-0.9,4.7-1.7,7,0c3,1.8,8.3,1.5,6.6,8c-3.1-2.2-5.6-5.4-10-3.8
	c1.6,1.5,4.1,1.7,5.1,4.1c-2.2-0.1-3.7-1.9-5.7-1.5c-3-1.7-5.7-0.7-8.4,0.7c-4.6,2.3-9.2,1.8-14,0.5c-1.1-0.3-1.7-0.8-1.8-2
	c3.3,0.7,6.6-0.9,10,1.1c1.6,0.9,2.7-2.1,4.1-3.3c0.2,0,0.4,0,0.6,0C49.5,146.3,50.4,143.5,52.7,142.8z"/>
<path class="st17" d="M55.5,120.6c-1-1.2-2-1.5-3,0c-2.4-7.6-7.9-10-15.7-8.6C44.7,106.4,53.5,110.9,55.5,120.6z"/>
<path class="st18" d="M112.6,40.6c-3.5,0.3-4.5,3.8-7,5.3c-2.7,1.5-5,3.8-8,4.8c-1,0.5-2,0.8-2-0.9c6.9-2.8,11.5-8.5,16.7-13.3
	C112.8,37.8,114.2,39.1,112.6,40.6z"/>
<path class="st19" d="M92.5,4.5c1-1.5,2.7-0.7,4-1c3.9-0.9,7.4-0.4,9.9,3.2c-0.5,2.9-2.3,1.6-3.7,1.1C99.3,6.8,95.9,5.6,92.5,4.5z"
	/>
<path class="st20" d="M106.4,6.7C103.3,5,100,4,96.5,3.5c0.1-0.6-2.4-1.1-0.3-1.7c1.7-0.5,3.5-0.1,5.2,0.7c2.4,0.3,4.6,1,6.1,3
	C107.2,5.9,106.8,6.3,106.4,6.7z"/>
<path class="st16" d="M50.1,136.6c-0.7,2.9-4,4.5-3.6,7.9c-3.2-0.6-4.2-2-1.5-4.5C46.6,138.7,47.5,136.4,50.1,136.6z"/>
<path class="st21" d="M103.8,20.9c1.1,0.5,2.5,0.8,2.5,2.4c0,0.8-0.7,1.1-1.3,0.9c-1.1-0.3-2-1.1-2.3-2.2
	C102.4,21.3,102.9,20.8,103.8,20.9z"/>
<path class="st22" d="M95.6,49.8c0.7,0.3,1.3,0.6,2,0.9c-0.1,0.3-0.2,0.5-0.3,0.8c-0.6,0.1-1.3,0.2-1.9,0.2c-0.9,0-2.3,0.2-2.3-0.9
	C93,49,94.6,49.9,95.6,49.8z"/>
<path class="st16" d="M46.5,144.5c0.6-0.3,1.3-0.7,1.9-1c1.1,0.1,1.3,0.8,0.9,1.6c-0.6,1.2-1.4,2.1-3,1.6c0,0-0.1-0.1-0.1-0.1
	C46.4,145.8,46.4,145.1,46.5,144.5z"/>
<path class="st23" d="M30.2,165.2c-2.3,0.5-3.5,0.5-4.2-1.1C27.5,163.6,28.4,164.6,30.2,165.2z"/>
<path class="st24" d="M59.1,137.7c5.7-3.2,7.2-2.6,10.7,3.6C66,141.1,63,139.2,59.1,137.7z"/>
<path class="st25" d="M46.4,146.6c0.8-1,2.9-1.1,2-3.1c0.9-1.1,0.8-3.1,2.6-3.2c1.5-0.1,0.2,2.2,1.6,2.6c-1,2.1-2.5,3.7-4.5,4.9
	C47,148.3,46.3,148,46.4,146.6z"/>
<path class="st25" d="M60.4,142.6c-2.3,0-4.7,0-7,0C55.8,141,58.1,138.4,60.4,142.6z"/>
<path class="st26" d="M81.1,33.9c-4-0.5-5.5-2.4-5.1-5.8c0.3-2.7,1.1-5.3,4.4-4.6c2.9,0.6,5.8,2.4,5.5,6
	C85.7,32.5,83.6,34,81.1,33.9z"/>
</svg>
