<?xml version="1.0" encoding="utf-8"?>
<!-- Generator: Adobe Illustrator 23.0.3, SVG Export Plug-In . SVG Version: 6.00 Build 0)  -->
<svg version="1.1" id="Layer_1" xmlns="http://www.w3.org/2000/svg" xmlns:xlink="http://www.w3.org/1999/xlink" x="0px" y="0px"
	 viewBox="0 0 72 72" style="enable-background:new 0 0 72 72;" xml:space="preserve">
<style type="text/css">
	.st0{fill:#0082BE;}
</style>
<path class="st0" d="M66.69,0H5.32C2.38,0,0,2.38,0,5.32v61.37C0,69.62,2.38,72,5.32,72h61.37c2.94,0,5.32-2.38,5.32-5.32V5.32
	C72,2.38,69.62,0,66.69,0z M21.46,61.34H10.64V26.95h10.82V61.34z M16.05,22.19c-3.45,0-6.24-2.62-6.24-6.21s2.79-6.22,6.24-6.22
	s6.24,2.63,6.24,6.22S19.49,22.19,16.05,22.19z M61.37,61.36H50.54V42.58c0-5.54-2.36-7.25-5.39-7.25c-3.21,0-6.36,2.42-6.36,7.39
	v18.64H27.96V26.98h10.41v4.76h0.14c1.05-2.12,4.7-5.73,10.29-5.73c6.04,0,12.57,3.58,12.57,14.09V61.36z"/>
</svg>
