<?xml version="1.0" encoding="utf-8"?>
<!-- Generator: Adobe Illustrator 23.1.1, SVG Export Plug-In . SVG Version: 6.00 Build 0)  -->
<svg version="1.1" id="Layer_1" xmlns="http://www.w3.org/2000/svg" xmlns:xlink="http://www.w3.org/1999/xlink" x="0px" y="0px"
	 viewBox="0 0 435.1 307.2" style="enable-background:new 0 0 435.1 307.2;" xml:space="preserve">
<style type="text/css">
	.st0{fill:#FFFFFF;}
	.st1{fill:none;stroke:#FFFFFF;stroke-width:5;stroke-miterlimit:10;}
	.st2{fill:none;stroke:#FFFFFF;stroke-width:6;stroke-miterlimit:10;}
	.st3{fill:none;stroke:#FFFFFF;stroke-width:3.9999;stroke-miterlimit:9.9998;}
	.st4{fill:none;stroke:#FFFFFF;stroke-miterlimit:10;}
	.st5{enable-background:new    ;}
</style>
<g>
	<g>
		<path class="st0" d="M118.7,158.2c20,11.8,44.1,4.4,57.8-13.3c10.8-14,9.9-30.3,4.8-46.4c-4.9-15.5-14.2-30-27.2-39.8
			c-15.7-11.9-34.9-14.9-54-11.6c-17.3,3-32.3,11-40,27.4c-7.3,15.7-6.7,34.1-3.7,50.8c1.5,8.3,4.4,15.7,7.3,23.5
			c1.3,3.4,3.2,7.9,2.6,11.6c-0.8,4.9-6.8,9.2-9.2,13.5c-5.9,10.1-9.4,22.1-12.4,33.3c-3.1,11.7-4.2,24.3-2.8,36.4
			c0.6,4.7,8.1,4.8,7.5,0c-1.8-15.1,0.6-30.5,5.7-44.7c2.4-6.7,4.3-13.3,7.6-19.7c3-5.8,8.3-9.8,10.6-15.9c3.2-8.7-4-20.2-6.8-28.1
			c-3.5-9.9-4.7-21-4.7-31.4c0-10.2,1.8-20.6,6.8-29.5c5.4-9.7,14.5-14.9,24.9-17.9c19.4-5.6,40.5-3.8,56.7,9
			c15.4,12.1,25.2,31.8,27.1,51.1c2.7,28.2-30.5,49.8-55.1,35.4C118.3,149.2,114.5,155.7,118.7,158.2L118.7,158.2z"/>
	</g>
</g>
<ellipse class="st1" cx="99.4" cy="105.8" rx="19.4" ry="28.4"/>
<g>
	<g>
		<path class="st0" d="M150.1,164.4c3.5,3.3,4,9.1,5.3,13.5c2,7,2.6,14.3,3.9,21.5c2.4,14.2-0.5,29.1-0.5,43.4c0,4.8,7.5,4.8,7.5,0
			c0-15.8,2.5-31.6-0.1-47.3c-1.3-7.4-2.2-14.6-4.2-21.9c-1.4-5.1-2.6-10.7-6.6-14.5C151.9,155.8,146.6,161.1,150.1,164.4
			L150.1,164.4z"/>
	</g>
</g>
<g>
	<g>
		<path class="st0" d="M121,191.2c7.5,7.2,21.4,7,30,2.5c4.7-2.5,8.1-7.2,12-10.8c4.9-4.6,12.1-4.5,18.4-4.6c1.6,0,1.6-2.5,0-2.5
			c-5.1,0-10.6,0.1-15.4,2.1c-3.4,1.4-5.8,4.1-8.3,6.7c-5.4,5.6-10.9,9.4-18.9,9.7c-5.2,0.2-12.2-1.2-16.1-4.9
			C121.7,188.3,119.9,190,121,191.2L121,191.2z"/>
	</g>
</g>
<g>
	<g>
		<path class="st0" d="M184.2,178c1.9-5.5,11.5-7.3,16.5-8.4c7.8-1.7,16.8-1.2,22,5.8c0.9-1.2,1.8-2.3,2.7-3.5
			c-3-0.8-5.8-1.1-8.9-0.8c-1.6,0.2-3.2,2-2.1,3.6c3.2,4.4,7.8,7.6,10.7,12.3c0.9-1.2,1.8-2.3,2.7-3.5c-5.7-1.2-10.4-4.9-16.3-5.3
			c-1.5-0.1-2.7,1.6-2.3,3c1.6,4.8,4.2,9,6.8,13.3c1.6,2.6,5.5,0.3,4.1-2.4c-2.5-4.9-9.2-6.2-14.1-7.3c-7.9-1.8-15.2-4-22.3-8
			c-2.7-1.5-5.1,2.6-2.4,4.1c6,3.4,12.6,6.3,19.4,7.7c4.4,0.9,13,1.5,15.4,6c1.4-0.8,2.7-1.6,4.1-2.4c-2.4-3.9-4.9-7.8-6.3-12.2
			c-0.8,1-1.5,2-2.3,3c5.4,0.4,9.8,4,15.1,5.1c2,0.4,3.8-1.6,2.7-3.5c-2.9-4.7-7.4-7.9-10.7-12.3c-0.7,1.2-1.4,2.4-2.1,3.6
			c2.6-0.3,5-0.1,7.6,0.6c1.9,0.5,4-1.7,2.7-3.5c-6.4-8.7-16.4-10-26.5-8.1c-7.2,1.3-18,4.1-20.6,11.8
			C178.6,179.6,183.2,180.8,184.2,178L184.2,178z"/>
	</g>
</g>
<g>
	<g>
		<path class="st0" d="M162.9,207.8c4.1,4,8.6,7.2,14.2,8.4c6.3,1.4,13.1,0.1,19.4-0.6c1.6-0.2,1.6-2.7,0-2.5
			c-5.3,0.6-10.6,1.4-15.9,1.1c-6.4-0.3-11.5-3.9-16-8.2C163.5,204.9,161.7,206.7,162.9,207.8L162.9,207.8z"/>
	</g>
</g>
<g>
	<g>
		<path class="st0" d="M197.8,215.8c5.1-7.6,12.5-12.1,21.4-14c2.8-0.6,5.8-0.8,8.7-0.8c0.9,0,1.8,0,2.7,0.1c0.2,0,2,0.2,1,0.1
			c-0.2-1.3-0.3-2.6-0.5-3.9c-4.7,2.6-9.4,5.3-14.1,7.9c-1.8,1-1,4,1.1,4c5.5-0.1,11-0.3,16.5-0.4c-0.4-1.3-0.7-2.6-1.1-4
			c-5.2,2.3-10.4,4.6-15.5,6.9c-1.7,0.8-1.2,3.5,0.5,3.9c6.1,1.4,12.3,2.8,18.4,4.2c0-1.4,0-2.7,0-4.1c-11.9,4.8-29.4,7.9-39.3-2.3
			c-1.9-2-4.9,1-3,3c11,11.3,30.1,8.7,43.4,3.4c1.8-0.7,2.3-3.6,0-4.1c-6.1-1.4-12.3-2.8-18.4-4.2c0.2,1.3,0.3,2.6,0.5,3.9
			c5.2-2.3,10.4-4.6,15.5-6.9c2-0.9,0.9-4-1.1-4c-5.5,0.1-11,0.3-16.5,0.4c0.4,1.3,0.7,2.6,1.1,4c4.7-2.6,9.4-5.3,14.1-7.9
			c1.5-0.8,1.4-3.6-0.5-3.9c-14.8-2-30.2,4.1-38.6,16.6C192.6,215.9,196.3,218,197.8,215.8L197.8,215.8z"/>
	</g>
</g>
<g>
	<g>
		<path class="st0" d="M302.9,43c30.8,10.4,62.9,16.6,93.8,26.9c6.4,2.1,12.8,4.4,18.8,7.4c1.7,0.8,3.4,1.7,4.8,2.9
			c1.3,1.1,0.9,0.3,0.8,1.8c-0.3,4.9-2.2,9.9-3.6,14.6c-2.3,7.6-5,15.2-7.7,22.7c-5.2,14.4-10.8,28.7-17.4,42.4
			c-1.9,3.9-3.9,8.4-6.5,11.7c-0.4,0.5-0.9,0.9-0.7,0.8c1-0.6,0.9-0.2-0.3-0.4c-2.9-0.5-5.8-1.3-8.6-2c-16.7-4.4-33.2-10-49.4-15.8
			c-20.7-7.4-42.6-15.8-60.2-29.1c0.5,1.2,1,2.4,1.4,3.5c6.8-31.3,17-63.4,37.9-88.3c2.6-3.1-1.8-7.5-4.4-4.4
			C280,63.6,269,96.4,262,128.9c-0.3,1.5,0.2,2.6,1.4,3.5c18.3,13.7,41.2,22.4,62.6,30c17.3,6.2,34.8,12.2,52.7,16.6
			c3.8,0.9,8.1,2.5,11.2-0.6c3.2-3.3,5.2-8,7.2-12c7.2-14.7,13.1-30,18.7-45.3c4.5-12.3,9.7-25.1,11.4-38.2
			c1.2-9-12.3-12.8-18.7-15.3c-31.5-12.2-65-19-97.3-28.5c-2.2-0.7-4.5-1.3-6.7-2.1C300.8,35.7,299.1,41.7,302.9,43L302.9,43z"/>
	</g>
</g>
<g>
	<g>
		<path class="st0" d="M296,150.3C285.8,163,280.7,179,278.5,195c-2.2,16.1-1.5,33.2,5,48.3c1.9,4.4,8.4,0.6,6.5-3.8
			c-5.7-13.1-5.9-28.2-4.3-42.2c1.6-14.6,6.3-30.2,15.6-41.8C304.3,151.9,299,146.6,296,150.3L296,150.3z"/>
	</g>
</g>
<g>
	<g>
		<path class="st0" d="M378.5,179.7c11.7,20.2,12.7,43.2,10.4,65.9c-0.5,4.8,7,4.8,7.5,0c2.4-24.1,1-48.3-11.4-69.7
			C382.6,171.7,376.1,175.5,378.5,179.7L378.5,179.7z"/>
	</g>
</g>
<path class="st1" d="M350.3,106.5c-5.4,20.6,1.1,41.1,14.6,45.6s28.8-8.5,34.3-29.2c5.4-20.6-1.1-41.1-14.6-45.6
	C371.1,72.8,355.8,85.9,350.3,106.5z"/>
<g>
	<g>
		<path class="st0" d="M372.3,200.6c-6.3,21.2-35.8,24.4-53.5,17.1c-1.5-0.6-2.1,1.8-0.7,2.4c19,7.9,49.8,3.7,56.6-18.8
			C375.2,199.7,372.7,199.1,372.3,200.6L372.3,200.6z"/>
	</g>
</g>
<g>
	<g>
		<path class="st0" d="M283.8,183c-10.9,0.9-19.3-9.8-29.8-11.5c-1.6-0.3-2.3,2.1-0.7,2.4c10.8,1.8,19.1,12.5,30.5,11.6
			C285.4,185.4,285.4,182.9,283.8,183L283.8,183z"/>
	</g>
</g>
<g>
	<g>
		<path class="st0" d="M239.9,163c1.3-2.9,2.7-5.9,4-8.8c-0.9,0.4-1.9,0.8-2.8,1.1c6.5,1.9,14.7,7,12,15c-2.8,8.3-14.7,4.6-20,1.8
			c0.4,0.9,0.8,1.9,1.1,2.8c0.8-2.2,1.6-4.5,2.3-6.7c-1,0.6-2.1,1.2-3.1,1.7c3.4,1.3,15.7,5.6,16.1-1.8c0.3-5.4-7-8.3-11.3-8.8
			c-3.2-0.4-4.5,4.4-1.3,4.8c2.3,0.3,6.6,1.1,7.6,3.7c0,0.1,0.2-0.5,0.3-0.5c-0.5,0.3-1.5,0.1-2.1,0.1c-2.7-0.1-5.5-1.3-8-2.2
			c-1.3-0.5-2.7,0.6-3.1,1.7c-0.8,2.2-1.6,4.5-2.3,6.7c-0.4,1,0.2,2.3,1.1,2.8c8.5,4.6,22.5,7.1,27.1-4.2c4.4-10.8-6.1-19-15.3-21.7
			c-1-0.3-2.4,0.2-2.8,1.1c-1.3,2.9-2.7,5.9-4,8.8C234.2,163.4,238.5,166,239.9,163L239.9,163z"/>
	</g>
</g>
<g>
	<g>
		<path class="st0" d="M358.2,47.4c-1.4-8.3-6-15-9.1-22.7c-0.6-1.5-3-0.8-2.4,0.7c3.1,7.6,7.7,14.5,9.1,22.7
			C356,49.6,358.4,49,358.2,47.4L358.2,47.4z"/>
	</g>
</g>
<ellipse class="st0" cx="346.9" cy="21.4" rx="8" ry="7.4"/>
<path class="st2" d="M119,39.2c4.7,5.5-31.1-33.7-31.1-33.7L75.6,34.8l-35.3-7.4l4.4,36l-31.4,13l25.3,35.7l-23.6,14l32.3,29
	l-35,17.5l24,26.1L5,215.1c0,0,28.4,29.4,23.4,24.1"/>
<g>
	<g>
		<path class="st0" d="M302.1,213c0.7-3.1,1.5-6.3,2.2-9.4c-0.8,0.6-1.6,1.2-2.4,1.8c6.3,0.5,15.9,4,14.6,12.1
			c-1.4,8.9-13.3,7.7-19.4,5.8c0.6,1,1.2,2.1,1.7,3.1c0.3-2.3,0.6-4.7,1-7c-1,0.6-2.1,1.2-3.1,1.7c4.3,0.7,15.6,2.7,16-4.4
			c0.3-5.8-9.1-7.2-13-6.9c-3.2,0.2-3.2,5.2,0,5c2.7-0.2,5.8,0,7.9,2c0.5,0.5-0.4,0.4,0.4-0.6c-0.2,0.3-0.9,0.4-1.2,0.5
			c-2.7,0.7-6,0.1-8.6-0.4c-1.2-0.2-2.9,0.3-3.1,1.7c-0.3,2.3-0.6,4.7-1,7c-0.2,1.4,0.3,2.6,1.7,3.1c9.3,2.8,23,2.3,25.5-9.3
			s-10-17.6-19.4-18.4c-1.1-0.1-2.2,0.8-2.4,1.8c-0.7,3.1-1.5,6.3-2.2,9.4C296.6,214.8,301.4,216.1,302.1,213L302.1,213z"/>
	</g>
</g>
<path class="st0" d="M299,74.5c-5,5.7-5.8,15.7-5.8,22.1c0,2.2,1.8,8.3,3.9,10.5c3.8,4,10,5.5,6.3,1.6c-6.4-6.7-6.7-12.9-5.4-21
	c1.4-9,6.4-18,12.8-16.8C316.3,71.8,305.7,66.9,299,74.5z"/>
<path class="st0" d="M393.8,93c-2.2-7.4-7.5-12.6-11.8-14.7c-2.5-1.2,4.9-1,10.4,4.1c4.9,4.6,8.8,13,8.8,15.5
	c-0.2,7.4,0,22.7-4,28.9c-1.7,2.6-14,23.8-22.4,27.4c-1.5,0.6-13.1-5.1-11.6-4.7c8.2,1.8,12.7-0.4,17.8-6c3.2-3.4,9.2-13.9,11.3-21
	C395,113.7,397.4,105.1,393.8,93z"/>
<path class="st0" d="M107.9,83.7c-2.5-1.4-10.9,0.1-12.3,1.2c-5.1,4-4.4,3.8-7.5,10.2c-2.1,4.2-0.9,10-0.8,16.1
	c0,0.5,1.4,8.6,3.8,13.2c1.5,2.9,5.1,8.4,14.2,6.1c2.7-0.7-9.5,3.3-9.5,3.3l-12.4-13L80.1,101l10.6-20.5l9.7-2.6
	C100.4,77.9,111.9,86,107.9,83.7z"/>
<ellipse transform="matrix(0.2273 -0.9738 0.9738 0.2273 149.6422 368.7063)" class="st3" cx="307.2" cy="90.1" rx="20.9" ry="12.8"/>
<path class="st4" d="M299.5,105.5c3.5,3.5,7.1,4.8,10.6,1.1"/>
<g class="st5">
	<path class="st0" d="M22.3,256.8c12.5,0,18.7,9.5,18.7,19s-6.3,19-18.7,19H8.6v-38H22.3z M22.3,289.4c8.8,0,13.3-6.7,13.3-13.5
		s-4.5-13.5-13.3-13.5h-8.2v27H22.3z"/>
	<path class="st0" d="M64.1,262.3H57v27.1h7.1v5.5H44.4v-5.5h7.1v-27.1h-7.1v-5.4h19.6V262.3z"/>
	<path class="st0" d="M68.7,294.9v-38.1l4.2,0.1l18.6,26.8v-26.8h5.4v38.1h-4.4l-18.4-26.6v26.6H68.7z"/>
	<path class="st0" d="M107,262.1c3.5-3.5,8.4-5.8,13.7-5.8c5.4,0,10.2,2.2,13.8,5.8c3.4,3.5,5.7,8.4,5.7,13.8
		c0,5.4-2.2,10.2-5.7,13.8c-3.5,3.6-8.4,5.8-13.8,5.8c-5.3,0-10.2-2.2-13.7-5.8c-3.4-3.5-5.7-8.4-5.7-13.8
		C101.4,270.4,103.6,265.6,107,262.1z M130.6,266c-2.6-2.6-6.1-4.1-9.8-4.1c-3.8,0-7.2,1.6-9.7,4.1c-2.5,2.5-4.1,6-4.1,9.8
		s1.6,7.3,4.1,9.8c2.5,2.6,6,4.1,9.7,4.1c3.8,0,7.3-1.6,9.8-4.1c2.4-2.5,4-5.9,4-9.8C134.6,271.9,133,268.5,130.6,266z"/>
	<path class="st0" d="M166.5,266.6c-0.8-3.4-4.5-4.9-7.8-4.8c-2.6,0.1-5.4,0.9-6.9,2.9c-0.8,1-1,2.2-0.9,3.5
		c0.3,3.9,4.6,4.4,8.7,4.8c5.2,0.7,11.7,2,13.2,8.1c0.2,0.8,0.3,1.7,0.3,2.5c0,7.3-7.3,11.6-14.1,11.6c-5.9,0-13-3.5-13.7-10.3
		l-0.1-1l5.6-0.1l0.1,0.8v-0.2c0.4,3.5,4.7,5.4,8.2,5.4c4.1,0,8.5-2.3,8.5-6.2c0-0.4-0.1-0.8-0.2-1.3c-0.7-2.9-4.6-3.4-8.4-3.8
		c-5.9-0.6-12.9-1.9-13.5-9.8v0.1c-0.2-2.6,0.4-5.1,2.1-7.2c2.6-3.3,7.1-5.1,11.5-5.1c5.9,0,12,3,13,10L166.5,266.6z"/>
</g>
<g class="st5">
	<path class="st0" d="M195.7,268.5h4.1L189.2,295h-2.8l-10.6-26.4h4.1l7.8,19.7L195.7,268.5z"/>
	<path class="st0" d="M216.6,275.3c-0.5-2.4-3.1-3.4-5.4-3.4c-1.8,0-3.7,0.6-4.8,2c-0.5,0.7-0.7,1.5-0.6,2.5c0.2,2.7,3.2,3.1,6,3.3
		c3.6,0.5,8.1,1.4,9.1,5.6c0.1,0.6,0.2,1.2,0.2,1.7c0,5.1-5.1,8-9.8,8c-4.1,0-9-2.4-9.5-7.1l0-0.7l3.8-0.1l0,0.6v-0.2
		c0.3,2.5,3.2,3.7,5.7,3.7c2.8,0,5.9-1.6,5.9-4.3c0-0.3,0-0.6-0.1-0.9c-0.5-2-3.2-2.3-5.8-2.6c-4.1-0.4-8.9-1.3-9.4-6.8v0
		c-0.2-1.8,0.3-3.5,1.4-5c1.8-2.3,4.9-3.5,8-3.5c4.1,0,8.3,2.1,9,6.9L216.6,275.3z"/>
</g>
<g class="st5">
	<path class="st0" d="M232.8,275.6h6.4c4.6,0,6.9-3.3,6.9-6.6c0-3.3-2.3-6.6-6.9-6.6h-8.4v32.5h-5.4v-38.1h13.9
		c8.3,0,12.4,6.1,12.4,12.1c0,5.4-3.3,10.5-9.8,11.6l12,14.3h-7.1l-13.9-16.7V275.6z"/>
	<path class="st0" d="M260.8,262.1c3.5-3.5,8.4-5.8,13.7-5.8c5.4,0,10.2,2.2,13.8,5.8c3.4,3.5,5.7,8.4,5.7,13.8
		c0,5.4-2.2,10.2-5.7,13.8c-3.5,3.6-8.4,5.8-13.8,5.8c-5.3,0-10.2-2.2-13.7-5.8c-3.4-3.5-5.7-8.4-5.7-13.8
		C255.2,270.4,257.4,265.6,260.8,262.1z M284.4,266c-2.6-2.6-6.1-4.1-9.8-4.1s-7.2,1.6-9.7,4.1c-2.5,2.5-4.1,6-4.1,9.8
		s1.6,7.3,4.1,9.8c2.5,2.6,6,4.1,9.7,4.1s7.3-1.6,9.8-4.1c2.4-2.5,4-5.9,4-9.8C288.4,271.9,286.8,268.5,284.4,266z"/>
	<path class="st0" d="M315.4,256.8c4.8,0,7.8,2.7,9.2,6.3c1.5,3.8,1,8.1-2.8,10.8c4.4,1.9,5.9,5.9,5.9,9.5c0,5.7-3.8,11.5-11,11.5
		h-17.2v-38H315.4z M305,272h10.3c6,0,6.1-9.9,0.1-9.9H305V272z M305,289.5h11.8c3.7,0,5.6-3.1,5.6-6.1c0-3-1.9-6-5.6-6H305V289.5z"
		/>
	<path class="st0" d="M337,262.1c3.5-3.5,8.4-5.8,13.7-5.8c5.4,0,10.2,2.2,13.8,5.8c3.4,3.5,5.7,8.4,5.7,13.8
		c0,5.4-2.2,10.2-5.7,13.8c-3.5,3.6-8.4,5.8-13.8,5.8c-5.3,0-10.2-2.2-13.7-5.8c-3.4-3.5-5.7-8.4-5.7-13.8
		C331.3,270.4,333.6,265.6,337,262.1z M360.6,266c-2.6-2.6-6.1-4.1-9.8-4.1c-3.8,0-7.2,1.6-9.7,4.1c-2.5,2.5-4.1,6-4.1,9.8
		s1.6,7.3,4.1,9.8c2.5,2.6,6,4.1,9.7,4.1c3.8,0,7.3-1.6,9.8-4.1c2.4-2.5,4-5.9,4-9.8C364.6,271.9,363,268.5,360.6,266z"/>
	<path class="st0" d="M384.2,295v-33.1h-11.5v-5.1h28.5v5.1h-11.5V295H384.2z"/>
	<path class="st0" d="M426.1,266.6c-0.8-3.4-4.5-4.9-7.8-4.8c-2.6,0.1-5.4,0.9-6.9,2.9c-0.8,1-1,2.2-0.9,3.5
		c0.3,3.9,4.6,4.4,8.7,4.8c5.2,0.7,11.7,2,13.2,8.1c0.2,0.8,0.3,1.7,0.3,2.5c0,7.3-7.3,11.6-14.1,11.6c-5.9,0-13-3.5-13.7-10.3
		l-0.1-1l5.5-0.1l0.1,0.8v-0.2c0.4,3.5,4.7,5.4,8.2,5.4c4.1,0,8.5-2.3,8.5-6.2c0-0.4-0.1-0.8-0.2-1.3c-0.7-2.9-4.6-3.4-8.4-3.8
		c-5.9-0.6-12.9-1.9-13.5-9.8v0.1c-0.2-2.6,0.4-5.1,2.1-7.2c2.6-3.3,7.1-5.1,11.5-5.1c5.9,0,12,3,13,10L426.1,266.6z"/>
</g>
</svg>
